<svg width="24" height="20" viewBox="0 0 24 20" fill="none" xmlns="http://www.w3.org/2000/svg">
<path d="M21.0586 5.18066C21.0678 5.39186 21.0679 5.59346 21.0679 5.80466C21.0771 12.2079 16.3726 19.5999 7.76939 19.5999C5.23194 19.5999 2.7408 18.8415 0.601562 17.4207C0.971993 17.4687 1.34242 17.4879 1.71285 17.4879C3.81505 17.4879 5.86168 16.7583 7.51935 15.4047C5.51903 15.3663 3.75948 14.0127 3.14827 12.0351C3.85209 12.1791 4.57443 12.1503 5.25973 11.9487C3.08345 11.5071 1.51838 9.51987 1.50912 7.20626C1.50912 7.18706 1.50912 7.16786 1.50912 7.14866C2.15737 7.52306 2.88897 7.73426 3.62983 7.75346C1.5832 6.33266 0.944211 3.50065 2.18515 1.28304C4.56517 4.31665 8.06574 6.15026 11.8256 6.35186C11.4459 4.67185 11.9645 2.90545 13.1777 1.71505C15.0576 -0.118561 18.0211 -0.0225605 19.7991 1.92625C20.8456 1.71505 21.855 1.31184 22.7718 0.745442C22.4199 1.86865 21.6883 2.81905 20.7159 3.42385C21.642 3.30865 22.5496 3.04945 23.4016 2.66545C22.7718 3.64465 21.9754 4.48945 21.0586 5.18066Z" fill="#1D9BF0"/>
</svg>
